<mxfile host="app.diagrams.net" agent="Mozilla/5.0 (Windows NT 10.0; Win64; x64) AppleWebKit/537.36 (KHTML, like Gecko) Chrome/131.0.0.0 Safari/537.36" version="25.0.0">
  <diagram name="Página-1" id="F7mW0uL-ovWU-x7ynx1V">
    <mxGraphModel dx="2261" dy="780" grid="1" gridSize="10" guides="1" tooltips="1" connect="1" arrows="1" fold="1" page="1" pageScale="1" pageWidth="827" pageHeight="1169" math="0" shadow="0">
      <root>
        <mxCell id="0" />
        <mxCell id="1" parent="0" />
        <mxCell id="gJqGEPu8uUDHAyEXI9fm-13" style="edgeStyle=orthogonalEdgeStyle;rounded=0;orthogonalLoop=1;jettySize=auto;html=1;exitX=0;exitY=0.5;exitDx=0;exitDy=0;entryX=0;entryY=0.5;entryDx=0;entryDy=0;" edge="1" parent="1" source="gJqGEPu8uUDHAyEXI9fm-10" target="gJqGEPu8uUDHAyEXI9fm-2">
          <mxGeometry relative="1" as="geometry" />
        </mxCell>
        <mxCell id="gJqGEPu8uUDHAyEXI9fm-14" style="edgeStyle=orthogonalEdgeStyle;rounded=0;orthogonalLoop=1;jettySize=auto;html=1;exitX=0;exitY=1;exitDx=0;exitDy=0;entryX=0.5;entryY=1;entryDx=0;entryDy=0;" edge="1" parent="1" source="gJqGEPu8uUDHAyEXI9fm-10" target="gJqGEPu8uUDHAyEXI9fm-11">
          <mxGeometry relative="1" as="geometry" />
        </mxCell>
        <mxCell id="gJqGEPu8uUDHAyEXI9fm-15" style="edgeStyle=orthogonalEdgeStyle;rounded=0;orthogonalLoop=1;jettySize=auto;html=1;exitX=0;exitY=0;exitDx=0;exitDy=0;entryX=0;entryY=0.5;entryDx=0;entryDy=0;" edge="1" parent="1" source="gJqGEPu8uUDHAyEXI9fm-10" target="gJqGEPu8uUDHAyEXI9fm-12">
          <mxGeometry relative="1" as="geometry" />
        </mxCell>
        <mxCell id="gJqGEPu8uUDHAyEXI9fm-16" style="edgeStyle=orthogonalEdgeStyle;rounded=0;orthogonalLoop=1;jettySize=auto;html=1;exitX=0.5;exitY=0;exitDx=0;exitDy=0;entryX=0;entryY=0.5;entryDx=0;entryDy=0;" edge="1" parent="1" source="gJqGEPu8uUDHAyEXI9fm-10" target="gJqGEPu8uUDHAyEXI9fm-8">
          <mxGeometry relative="1" as="geometry" />
        </mxCell>
        <mxCell id="gJqGEPu8uUDHAyEXI9fm-17" style="edgeStyle=orthogonalEdgeStyle;rounded=0;orthogonalLoop=1;jettySize=auto;html=1;exitX=1;exitY=0;exitDx=0;exitDy=0;entryX=0.5;entryY=0;entryDx=0;entryDy=0;" edge="1" parent="1" source="gJqGEPu8uUDHAyEXI9fm-10" target="gJqGEPu8uUDHAyEXI9fm-6">
          <mxGeometry relative="1" as="geometry" />
        </mxCell>
        <mxCell id="gJqGEPu8uUDHAyEXI9fm-18" style="edgeStyle=orthogonalEdgeStyle;rounded=0;orthogonalLoop=1;jettySize=auto;html=1;exitX=0.5;exitY=1;exitDx=0;exitDy=0;entryX=1;entryY=0.5;entryDx=0;entryDy=0;" edge="1" parent="1" source="gJqGEPu8uUDHAyEXI9fm-10" target="gJqGEPu8uUDHAyEXI9fm-5">
          <mxGeometry relative="1" as="geometry" />
        </mxCell>
        <mxCell id="gJqGEPu8uUDHAyEXI9fm-19" style="edgeStyle=orthogonalEdgeStyle;rounded=0;orthogonalLoop=1;jettySize=auto;html=1;exitX=1;exitY=1;exitDx=0;exitDy=0;entryX=0.5;entryY=0;entryDx=0;entryDy=0;" edge="1" parent="1" source="gJqGEPu8uUDHAyEXI9fm-10" target="gJqGEPu8uUDHAyEXI9fm-7">
          <mxGeometry relative="1" as="geometry" />
        </mxCell>
        <mxCell id="gJqGEPu8uUDHAyEXI9fm-10" value="" style="ellipse;whiteSpace=wrap;html=1;direction=south;" vertex="1" parent="1">
          <mxGeometry x="30" y="190" width="90" height="130" as="geometry" />
        </mxCell>
        <mxCell id="gJqGEPu8uUDHAyEXI9fm-1" value="Tarefa" style="shape=umlActor;verticalLabelPosition=bottom;verticalAlign=top;html=1;outlineConnect=0;" vertex="1" parent="1">
          <mxGeometry x="60" y="220" width="30" height="60" as="geometry" />
        </mxCell>
        <mxCell id="gJqGEPu8uUDHAyEXI9fm-2" value="Id" style="ellipse;whiteSpace=wrap;html=1;" vertex="1" parent="1">
          <mxGeometry x="110" y="30" width="120" height="80" as="geometry" />
        </mxCell>
        <mxCell id="gJqGEPu8uUDHAyEXI9fm-5" value="id_usuario" style="ellipse;whiteSpace=wrap;html=1;" vertex="1" parent="1">
          <mxGeometry x="-180" y="215" width="120" height="80" as="geometry" />
        </mxCell>
        <mxCell id="gJqGEPu8uUDHAyEXI9fm-6" value="descrição" style="ellipse;whiteSpace=wrap;html=1;" vertex="1" parent="1">
          <mxGeometry x="90" y="360" width="120" height="80" as="geometry" />
        </mxCell>
        <mxCell id="gJqGEPu8uUDHAyEXI9fm-7" value="setor" style="ellipse;whiteSpace=wrap;html=1;" vertex="1" parent="1">
          <mxGeometry x="-100" y="370" width="120" height="80" as="geometry" />
        </mxCell>
        <mxCell id="gJqGEPu8uUDHAyEXI9fm-8" value="prioridade" style="ellipse;whiteSpace=wrap;html=1;" vertex="1" parent="1">
          <mxGeometry x="190" y="250" width="120" height="80" as="geometry" />
        </mxCell>
        <mxCell id="gJqGEPu8uUDHAyEXI9fm-11" value="data_cadastro" style="ellipse;whiteSpace=wrap;html=1;" vertex="1" parent="1">
          <mxGeometry x="-100" y="30" width="120" height="80" as="geometry" />
        </mxCell>
        <mxCell id="gJqGEPu8uUDHAyEXI9fm-12" value="status" style="ellipse;whiteSpace=wrap;html=1;" vertex="1" parent="1">
          <mxGeometry x="200" y="140" width="120" height="80" as="geometry" />
        </mxCell>
        <mxCell id="gJqGEPu8uUDHAyEXI9fm-20" value="1" style="text;html=1;align=center;verticalAlign=middle;whiteSpace=wrap;rounded=0;" vertex="1" parent="1">
          <mxGeometry x="80" y="180" width="60" height="30" as="geometry" />
        </mxCell>
        <mxCell id="gJqGEPu8uUDHAyEXI9fm-21" value="1" style="text;html=1;align=center;verticalAlign=middle;whiteSpace=wrap;rounded=0;" vertex="1" parent="1">
          <mxGeometry x="40" y="150" width="60" height="30" as="geometry" />
        </mxCell>
        <mxCell id="gJqGEPu8uUDHAyEXI9fm-22" value="1" style="text;html=1;align=center;verticalAlign=middle;whiteSpace=wrap;rounded=0;" vertex="1" parent="1">
          <mxGeometry x="-10" y="180" width="60" height="30" as="geometry" />
        </mxCell>
        <mxCell id="gJqGEPu8uUDHAyEXI9fm-23" value="1" style="text;html=1;align=center;verticalAlign=middle;whiteSpace=wrap;rounded=0;" vertex="1" parent="1">
          <mxGeometry x="-10" y="230" width="60" height="30" as="geometry" />
        </mxCell>
        <mxCell id="gJqGEPu8uUDHAyEXI9fm-24" value="1" style="text;html=1;align=center;verticalAlign=middle;whiteSpace=wrap;rounded=0;" vertex="1" parent="1">
          <mxGeometry x="100" y="230" width="60" height="30" as="geometry" />
        </mxCell>
        <mxCell id="gJqGEPu8uUDHAyEXI9fm-25" value="1" style="text;html=1;align=center;verticalAlign=middle;whiteSpace=wrap;rounded=0;" vertex="1" parent="1">
          <mxGeometry x="-10" y="275" width="60" height="30" as="geometry" />
        </mxCell>
        <mxCell id="gJqGEPu8uUDHAyEXI9fm-26" value="1" style="text;html=1;align=center;verticalAlign=middle;whiteSpace=wrap;rounded=0;" vertex="1" parent="1">
          <mxGeometry x="80" y="290" width="60" height="30" as="geometry" />
        </mxCell>
        <mxCell id="gJqGEPu8uUDHAyEXI9fm-27" value="N" style="text;html=1;align=center;verticalAlign=middle;whiteSpace=wrap;rounded=0;" vertex="1" parent="1">
          <mxGeometry x="110" y="310" width="60" height="30" as="geometry" />
        </mxCell>
        <mxCell id="gJqGEPu8uUDHAyEXI9fm-28" value="N" style="text;html=1;align=center;verticalAlign=middle;whiteSpace=wrap;rounded=0;" vertex="1" parent="1">
          <mxGeometry x="140" y="260" width="60" height="30" as="geometry" />
        </mxCell>
        <mxCell id="gJqGEPu8uUDHAyEXI9fm-29" value="N" style="text;html=1;align=center;verticalAlign=middle;whiteSpace=wrap;rounded=0;" vertex="1" parent="1">
          <mxGeometry x="-70" y="230" width="60" height="30" as="geometry" />
        </mxCell>
        <mxCell id="gJqGEPu8uUDHAyEXI9fm-31" value="N" style="text;html=1;align=center;verticalAlign=middle;whiteSpace=wrap;rounded=0;" vertex="1" parent="1">
          <mxGeometry x="-60" y="110" width="60" height="30" as="geometry" />
        </mxCell>
        <mxCell id="gJqGEPu8uUDHAyEXI9fm-32" value="N" style="text;html=1;align=center;verticalAlign=middle;whiteSpace=wrap;rounded=0;" vertex="1" parent="1">
          <mxGeometry x="70" y="40" width="60" height="30" as="geometry" />
        </mxCell>
        <mxCell id="gJqGEPu8uUDHAyEXI9fm-36" value="N" style="text;html=1;align=center;verticalAlign=middle;whiteSpace=wrap;rounded=0;" vertex="1" parent="1">
          <mxGeometry x="-90" y="340" width="70" height="30" as="geometry" />
        </mxCell>
      </root>
    </mxGraphModel>
  </diagram>
</mxfile>
